<svg xmlns="http://www.w3.org/2000/svg" xmlns:xlink="http://www.w3.org/1999/xlink" width="245.25" height="245.25" viewBox="0 0 245.25 245.25">
  <defs>
    <clipPath id="clip-path">
      <path id="Path_46" data-name="Path 46" d="M81.43,67.457H326.68v245.25H81.43Zm0,0"/>
    </clipPath>
  </defs>
  <g id="adobe-cc-logo" transform="translate(-81.43 -67.457)">
    <g id="Group_22" data-name="Group 22" clip-path="url(#clip-path)">
      <path id="Path_45" data-name="Path 45" d="M299.43,312.707H108.68a27.254,27.254,0,0,1-27.25-27.25V94.707a27.251,27.251,0,0,1,27.25-27.25H299.43a27.249,27.249,0,0,1,27.25,27.25v190.75A27.252,27.252,0,0,1,299.43,312.707Zm0,0" fill="#00112f"/>
    </g>
    <path id="Path_47" data-name="Path 47" d="M292.617,183.785v5.778c-.054.316-.121.621-.164.933-.3,2.516-.5,5.043-.91,7.535a61.335,61.335,0,0,1-8.68,22.61,64.7,64.7,0,0,1-26.9,24.16,63.465,63.465,0,0,1-20.75,6.07c-1.6.184-3.211.348-4.813.524H168.176c-.317-.055-.629-.149-.942-.172a53.272,53.272,0,0,1-18.066-4.305,54.865,54.865,0,0,1-27.98-26.352,51.384,51.384,0,0,1-5.168-17.043c-.18-1.445-.348-2.882-.528-4.328V193.59a6.956,6.956,0,0,0,.172-.934,51.185,51.185,0,0,1,3.406-15.64,55.612,55.612,0,0,1,49.192-35.582,60.143,60.143,0,0,1,11.1.5,1.4,1.4,0,0,0,1.051-.34,65.579,65.579,0,0,1,18.133-13.02,63.866,63.866,0,0,1,20.855-6.09c1.723-.2,3.446-.355,5.168-.531h5.309c.348.055.7.117,1.043.156,2.629.305,5.273.5,7.875.926a62.675,62.675,0,0,1,22.68,8.531,64.513,64.513,0,0,1,24.488,26.7,61.807,61.807,0,0,1,6.133,20.582c.183,1.641.347,3.29.523,4.93m-99.039-37.379c.11.137.129.2.176.227a70.958,70.958,0,0,1,10.41,6.23,1.1,1.1,0,0,0,.977-.066,40.29,40.29,0,0,1,29.3-5.77,39.689,39.689,0,0,1,25.071,15.043,38.047,38.047,0,0,1,8.011,31.215,39.842,39.842,0,0,1-9.816,20.57c-9.734,10.645-21.938,15.043-36.289,13.184a38.452,38.452,0,0,1-22.781-11.246c-8.11-8.113-16.262-16.168-24.391-24.262A6.623,6.623,0,0,0,170.4,189.4a6.124,6.124,0,0,0-6.375,3.442,5.56,5.56,0,0,0,1.36,6.828c9.062,8.812,18.039,17.7,27.093,26.527a43.5,43.5,0,0,0,4.969,4.188,47.826,47.826,0,0,0,22.133,8.449,53.873,53.873,0,0,0,18.856-.734,52.376,52.376,0,0,0,29.519-17.953,52.111,52.111,0,0,0,11.152-43.356A50.1,50.1,0,0,0,267.145,152.5c-11.934-13.277-26.95-19.2-44.817-17.883a50.2,50.2,0,0,0-19.492,5.68,51.68,51.68,0,0,0-9.258,6.105M189.211,239.1c-.246-.227-.488-.45-.734-.68-3.707-3.469-7.434-6.91-11.09-10.418a3.034,3.034,0,0,0-2.367-.988,45.382,45.382,0,0,1-11.071-.715c-18.16-4.067-28.715-23.641-22.015-40.856a31.345,31.345,0,0,1,34.312-19.293,30.121,30.121,0,0,1,16.789,8.614c5.672,5.8,11.52,11.445,17.262,17.191a5.173,5.173,0,0,0,4.609,1.652,5.81,5.81,0,0,0,5.051-3.707,5.43,5.43,0,0,0-1.281-6.07c-6.024-6.043-11.9-12.242-18.168-18.027-12.156-11.227-26.481-14.571-42.336-9.8a42.19,42.19,0,0,0-28.926,49.754,42.836,42.836,0,0,0,42,33.387q8.484.01,16.965,0c.285,0,.566-.02,1-.047" fill="#fff"/>
  </g>
</svg>
