<svg xmlns="http://www.w3.org/2000/svg" width="688" height="755.9" viewBox="0 0 688 755.9">
  <g id="es6-logo" transform="translate(-756.3 -162.5)">
    <path id="Path_45" data-name="Path 45" d="M1100.3,918.4q-138.6-25.8-277.1-51.7-33.45-352.05-66.9-704.2h344.1Q1100.25,540.35,1100.3,918.4Z" fill="#fff"/>
    <path id="Path_46" data-name="Path 46" d="M1100.3,918.4q138.6-25.8,277.1-51.7,33.45-352.05,66.9-704.2H1100.2Q1100.35,540.35,1100.3,918.4Z" fill="#fff"/>
    <path id="Path_47" data-name="Path 47" d="M1100.3,617.8l-196.6-2.1q-7.05-56.7-14.2-113.5,105.45,1.95,210.8,3.8Z" fill="#00112f" stroke="#00112f" stroke-miterlimit="10" stroke-width="1"/>
    <path id="Path_48" data-name="Path 48" d="M1286.2,708.6c-4,34.7-7.9,69.4-11.9,104.2q-87.6,6.6-175.3,13.3.6-55.65,1.2-111.3Q1193.2,711.5,1286.2,708.6Z" fill="#00112f" stroke="#00112f" stroke-miterlimit="10" stroke-width="1"/>
    <path id="Path_49" data-name="Path 49" d="M1309,444.7c-33.2.1-66.3.3-99.5.4q-5.1-72.15-10.3-144.4,50.25,1.2,100.4,2.3Q1304.4,373.95,1309,444.7Z" fill="#00112f" stroke="#00112f" stroke-miterlimit="10" stroke-width="1"/>
    <path id="Path_50" data-name="Path 50" d="M913.2,709.8c5.1,34.4,10.2,68.7,15.3,103.1l174.3,13.2q-.6-55.65-1.2-111.3Q1007.4,712.1,913.2,709.8Z" fill="#00112f" stroke="#00112f" stroke-miterlimit="10" stroke-width="1"/>
    <path id="Path_51" data-name="Path 51" d="M901.7,404.5c4-34.4,7.9-68.9,11.9-103.3q93.3-7.2,186.7-14.5-.6,55.65-1.2,111.3Q1000.25,401.15,901.7,404.5Z" fill="#00112f" stroke="#00112f" stroke-miterlimit="10" stroke-width="1"/>
    <path id="Path_52" data-name="Path 52" d="M1306.1,404.7c-1.9-34.3-3.9-68.6-5.8-102.9q-100.65-7.65-201.2-15.3V397.8Q1202.45,401.4,1306.1,404.7Z" fill="#00112f" stroke="#00112f" stroke-miterlimit="10" stroke-width="1"/>
    <path id="Path_53" data-name="Path 53" d="M1099,617.8l196.6-2.1q7.05-56.7,14.2-113.5-105.45,1.95-210.8,3.8Q1099,561.8,1099,617.8Z" fill="#00112f" stroke="#00112f" stroke-miterlimit="10" stroke-width="1"/>
    <path id="Path_54" data-name="Path 54" d="M1203.4,818.1q35.4-2.7,70.9-5.4,17.7-155.25,35.5-310.6l-99.4,1.8Q1206.95,660.95,1203.4,818.1Z" fill="#00112f" stroke="#00112f" stroke-miterlimit="10" stroke-width="1"/>
    <path id="Path_55" data-name="Path 55" d="M995.8,818.1q-35.4-2.7-70.9-5.4-17.7-155.25-35.5-310.6l99.4,1.8Q992.4,660.95,995.8,818.1Z" fill="#00112f" stroke="#00112f" stroke-miterlimit="10" stroke-width="1"/>
    <path id="Path_56" data-name="Path 56" d="M987.6,295.4c-24.7,1.9-49.3,3.8-74,5.7q-12,100.5-24.1,201l99.4,1.8Q988.3,399.65,987.6,295.4Z" fill="#00112f" stroke="#00112f" stroke-miterlimit="10" stroke-width="1"/>
  </g>
</svg>
