<svg xmlns="http://www.w3.org/2000/svg" width="688" height="755.9" viewBox="0 0 688 755.9">
  <g id="html5-logo" transform="translate(-756.3 -162.5)">
    <path id="Path_45" data-name="Path 45" d="M1100.3,918.4q-138.6-25.8-277.1-51.7-33.45-352.05-66.9-704.2h344.1Q1100.25,540.35,1100.3,918.4Z" fill="#fff"/>
    <path id="Path_46" data-name="Path 46" d="M1100.3,918.4q138.6-25.8,277.1-51.7,33.45-352.05,66.9-704.2H1100.2Q1100.35,540.35,1100.3,918.4Z" fill="#fff"/>
    <path id="Path_47" data-name="Path 47" d="M1100.3,398l-227.1-2.4q-4.65-56.85-9.3-113.6l236.4,4.2Z" fill="#00112f" stroke="#00112f" stroke-miterlimit="10" stroke-width="1"/>
    <path id="Path_48" data-name="Path 48" d="M1100.3,398l227.1-2.4q4.65-56.85,9.3-113.6l-236.4,4.2Z" fill="#00112f" stroke="#00112f" stroke-miterlimit="10" stroke-width="1"/>
    <path id="Path_49" data-name="Path 49" d="M992.6,568.4c-36.2-.6-72.3-1.1-108.5-1.7Q873.9,424.35,863.8,282q59.7,1.05,119.5,2.1Q987.95,426.3,992.6,568.4Z" fill="#00112f" stroke="#00112f" stroke-miterlimit="10" stroke-width="1"/>
    <path id="Path_50" data-name="Path 50" d="M1100.3,617.8q-105.9-1.2-211.9-2.3-4.65-56.85-9.3-113.6,110.55,1.95,221.2,4Z" fill="#00112f" stroke="#00112f" stroke-miterlimit="10" stroke-width="1"/>
    <path id="Path_51" data-name="Path 51" d="M1100.3,617.8q105.9-1.2,211.9-2.3,4.65-56.85,9.3-113.6-110.55,1.95-221.2,4Q1100.3,561.85,1100.3,617.8Z" fill="#00112f" stroke="#00112f" stroke-miterlimit="10" stroke-width="1"/>
    <path id="Path_52" data-name="Path 52" d="M1192.6,788.4c36.2-.6,72.3-1.1,108.5-1.7q10.2-142.35,20.3-284.7-59.7,1.05-119.5,2.1Q1197.4,646.3,1192.6,788.4Z" fill="#00112f" stroke="#00112f" stroke-miterlimit="10" stroke-width="1"/>
    <path id="Path_53" data-name="Path 53" d="M1306.1,707.9c-1.9,34.3-3.9,68.6-5.8,102.9q-100.65,7.65-201.2,15.3.6-55.65,1.2-111.3Q1203.2,711.2,1306.1,707.9Z" fill="#00112f" stroke="#00112f" stroke-miterlimit="10" stroke-width="1"/>
    <path id="Path_54" data-name="Path 54" d="M893.2,707.9c1.9,34.3,3.9,68.6,5.8,102.9q102.3,7.5,204.7,14.9c-.3-36-.6-72.1-.9-108.1Q997.95,712.65,893.2,707.9Z" fill="#00112f"/>
    <path id="Path_55" data-name="Path 55" d="M999.3,818.4l-99.9-8.1q-5.25-74.25-10.6-148.5,50.25,1.2,100.4,2.3Q994.3,741.35,999.3,818.4Z" fill="#00112f" stroke="#00112f" stroke-miterlimit="10" stroke-width="1"/>
    <path id="Path_56" data-name="Path 56" d="M895.8,707.9c1.9,34.3,3.9,68.6,5.8,102.9q100.65,7.65,201.2,15.3-.6-55.65-1.2-111.3Q998.7,711.2,895.8,707.9Z" fill="#00112f" stroke="#00112f" stroke-miterlimit="10" stroke-width="1"/>
  </g>
</svg>
