<svg xmlns="http://www.w3.org/2000/svg" width="181" height="288.2" viewBox="0 0 181 288.2">
  <g id="portfolio-logo" transform="translate(-869.5 -395.9)">
    <rect id="Rectangle_58" data-name="Rectangle 58" width="16.8" height="142" transform="translate(871 541.6)" fill="#f9812a" stroke="#f9812a" stroke-miterlimit="10" stroke-width="1"/>
    <path id="Path_45" data-name="Path 45" d="M1050,468.9c.2,38.9-71.9,73.3-107,73.2-7.3,0-25.6-1.6-55.2-.5-.9,0-16.8.2-16.8,0,0-.3,37.1,3.6,72-5,32.7-8.1,90-33.5,90.1-67.6.1-34.2-57.4-65-91.1-67-.8,0-.9,0-38-1.7-22.7-1-34-1.5-34-2,0-.4,7.5-.6,11.9-.7,37.7-.9,56.6-1.3,60.4-1.2C976.8,397.4,1049.8,429.8,1050,468.9Z" fill="#f9812a" stroke="#f9812a" stroke-miterlimit="10" stroke-width="1"/>
    <rect id="Rectangle_59" data-name="Rectangle 59" width="72" height="5.6" transform="translate(870 396.4)" fill="#f9812a" stroke="#f9812a" stroke-miterlimit="10" stroke-width="1"/>
    <rect id="Rectangle_60" data-name="Rectangle 60" width="72" height="5.6" transform="translate(871 536.6)" fill="#f9812a" stroke="#f9812a" stroke-miterlimit="10" stroke-width="1"/>
    <path id="Path_46" data-name="Path 46" d="M923.6,501.8c11.6-24.5,23.3-48.9,34.9-73.4l3.9,8.3c-11.6,24.5-23.3,48.9-34.9,73.4C926.2,507.3,924.9,504.6,923.6,501.8Z" fill="#fff" stroke="#fff" stroke-miterlimit="10" stroke-width="1"/>
  </g>
</svg>
