<svg xmlns="http://www.w3.org/2000/svg" width="400" height="440" viewBox="0 0 400 440">
  <g id="plain" transform="translate(-1469.2 -32)">
    <path id="Path_38" d="M1856.9,371.1,1677.1,472V393.4l111.8-61.1Zm12.3-11V149.2l-65.8,37.7V322.4l65.8,37.7Zm-387.7,11,179.6,100.8V393.4l-111.8-61.1ZM1469.2,360V149.2l65.8,37.7V322.4Zm7.7-224.5L1661.3,32v76l-118.1,64.4-1,.5Zm384.5,0L1677.1,32v76l118.2,64.4,1,.5,65.3-37.4Z" fill="#fff"/>
    <path id="Path_39" d="M1661.2,375.7l-111.3-60.4V195.8L1661.2,259Zm15.9,0,111.3-60.3V195.8L1677.2,259ZM1557.5,182.1l111.7-60.6,111.7,60.6-111.7,63.5Z" fill="#fff"/>
  </g>
</svg>
